1.Collage Study Break

Two collage girls decide to take a break after having a day of studying.
Hanging out in Mom's room when she is away on business, the girls find
Mom's strap on. After Putting on a pair of Mom's sexy black pantyhose,
the girls decide to put the strap on to the test.
Studying can be much more fun if there is a strap on involved!

What is Strapon Cum?
Hot, juicy young girls in sexy, kinky outfits play and fuck each other with
big strapon that squirts loads of hot gooey cum!! Dungeons & slave training!
Girl-on-girl bondage! Hours of young girls begging for mercy...and more!

Screens:
 
http://bayimg.com/pAAiiaaEC

StraponCum.com - 1.Collage Study Break

Format                                   : Windows Media
File size                                : 634 MiB
Duration                                 : 21mn 2s
Overall bit rate mode                    : Constant
Overall bit rate                         : 4 212 Kbps
Maximum Overall bit rate                 : 4 229 Kbps
Performer                                : www.straponcum.com ┬⌐ 2008
Encoded date                             : UTC 2008-06-19 08:41:02.385
SfOriginalFPS                            : 250000

Video
ID                                       : 2
Format                                   : VC-1
Format profile                           : MP@HL
Codec ID                                 : WMV3
Codec ID/Info                            : Windows Media Video 9
Codec ID/Hint                            : WMV3
Description of the codec                 : Windows Media Video 9 - Professional
Duration                                 : 21mn 2s
Bit rate mode                            : Constant
Bit rate                                 : 4 146 Kbps
Width                                    : 960 pixels
Height                                   : 540 pixels
Display aspect ratio                     : 16:9
Frame rate                               : 25.000 fps
Bit depth                                : 8 bits
Scan type                                : Progressive
Compression mode                         : Lossy
Bits/(Pixel*Frame)                       : 0.320
Stream size                              : 624 MiB (98%)
Language                                 : English (US)

Audio
ID                                       : 1
Format                                   : WMA
Format version                           : Version 2
Codec ID                                 : 161
Codec ID/Info                            : Windows Media Audio
Description of the codec                 : Windows Media Audio 9.2 -  48 kbps, 44 kHz, stereo (A/V) 1-pass CBR
Duration                                 : 21mn 2s
Bit rate mode                            : Constant
Bit rate                                 : 48.0 Kbps
Channel(s)                               : 2 channels
Sampling rate                            : 44.1 KHz
Bit depth                                : 16 bits
Stream size                              : 7.23 MiB (1%)
Language                                 : English (US)